<svg xmlns="http://www.w3.org/2000/svg" width="36" height="36" viewBox="0 0 36 36">
    <g fill="none" fill-rule="evenodd">
        <circle cx="18" cy="18" r="17.4" stroke="#757575"/>
        <path fill="#757575" fill-rule="nonzero" d="M10.9 19h2c.3 0 .5-.2.5-.5s-.3-.5-.5-.5h-2c-.3 0-.5.2-.5.5s.2.5.5.5zm-2.6-.5c0-.3-.2-.5-.5-.5H6.6c-.3 0-.5.2-.5.5s.2.5.5.5h1.2c.3 0 .5-.3.5-.5zm21.6 2.1v1.5c0 .8-.6 1.5-1.5 1.7-.2 1.6-1.6 2.8-3.2 2.8-1.8 0-3.2-1.4-3.2-3.2 0-1.8 1.4-3.2 3.2-3.2 1.6 0 2.9 1.1 3.2 2.6.3-.1.5-.4.5-.7v-1.5-1.8-.3H16.4c-1.4 0-1.9-1.2-2-1.6-.1-.3 0-.6.3-.7.3-.1.6 0 .7.3.3.7.6 1 1.1 1h12.2c-.2-.5-.7-.9-1.7-1.8-.2-.2-.4-.4-.7-.6l-.5-.5c-.3-.2-.5-.5-.8-.7-.2-.2-.5-.4-.7-.6-2.7-2.3-3.5-2.9-5.9-2.9H9.3c-.6 0-1.1.4-1.1.8v1.2c0 .3-.2.5-.5.5s-.5-.2-.5-.5v-1.2c0-1 .9-1.8 2.1-1.8h9.3c2.7 0 3.8.9 6.5 3.2.2.2.4.4.7.6.3.2.6.5.8.8l.5.5c.2.2.5.4.7.6 1.7 1.5 2.1 1.9 2.2 3.9-.1.2-.1 1-.1 1.6zm-2.5 2.8c0-1.2-1-2.2-2.2-2.2-1.2 0-2.2 1-2.2 2.2 0 1.2 1 2.2 2.2 2.2 1.2 0 2.2-1 2.2-2.2zm-15.5-.5c-.3 0-.5.2-.5.5s.2.5.5.5.5-.2.5-.5-.2-.5-.5-.5zm13.3 0c-.3 0-.5.2-.5.5s.2.5.5.5.5-.2.5-.5-.2-.5-.5-.5zm-4.3.5c0 .3-.2.5-.5.5H15c-.2 1.5-1.6 2.7-3.2 2.7s-3-1.2-3.2-2.8c-.6-.1-1.1-.5-1.3-1-.1-.2-.2-.5-.2-.7v-1.5c0-.3.2-.5.5-.5s.5.2.5.5v1.5c0 .1 0 .2.1.3.1.2.2.3.5.4.3-1.5 1.6-2.6 3.2-2.6s2.9 1.2 3.2 2.7h5.4c.2 0 .4.2.4.5zm-6.8 0c0-1.2-1-2.2-2.2-2.2-1.2 0-2.2 1-2.2 2.2 0 1.2 1 2.2 2.2 2.2 1.2 0 2.2-1 2.2-2.2z"/>
    </g>
</svg>
